<?xml version="1.0" standalone="no"?>
<!DOCTYPE svg PUBLIC "-//W3C//DTD SVG 20010904//EN"
 "http://www.w3.org/TR/2001/REC-SVG-20010904/DTD/svg10.dtd">
<svg version="1.0" xmlns="http://www.w3.org/2000/svg"
 width="1232.000000pt" height="1232.000000pt" viewBox="0 0 1232.000000 1232.000000"
 preserveAspectRatio="xMidYMid meet">
<metadata>
Created by potrace 1.14, written by Peter Selinger 2001-2017
</metadata>
<g transform="translate(0.000000,1232.000000) scale(0.100000,-0.100000)"
fill="#000000" stroke="none">
<path d="M5745 11888 c-82 -5 -211 -16 -285 -24 -74 -8 -175 -19 -225 -24 -49
-4 -112 -13 -140 -19 -27 -7 -87 -16 -133 -21 -46 -6 -91 -14 -102 -20 -10 -5
-34 -10 -52 -10 -18 0 -58 -7 -88 -16 -30 -9 -73 -20 -95 -24 -90 -19 -219
-51 -229 -57 -6 -4 -28 -10 -51 -14 -22 -3 -60 -13 -85 -22 -25 -9 -79 -25
-120 -38 -41 -12 -88 -27 -105 -34 -81 -33 -141 -55 -149 -55 -8 0 -40 -13
-124 -51 -23 -10 -47 -19 -53 -19 -6 0 -35 -11 -65 -25 -30 -14 -59 -25 -64
-25 -6 0 -10 -4 -10 -10 0 -5 -8 -10 -17 -10 -15 0 -296 -132 -343 -161 -8 -5
-22 -12 -30 -16 -8 -3 -27 -15 -42 -25 -14 -10 -31 -18 -37 -18 -6 0 -32 -15
-58 -33 -27 -19 -74 -47 -105 -63 -32 -16 -58 -32 -58 -36 0 -5 -4 -8 -9 -8
-5 0 -37 -18 -70 -40 -33 -22 -62 -40 -65 -40 -3 0 -17 -11 -32 -25 -15 -14
-29 -23 -31 -21 -2 2 -18 -9 -36 -25 -17 -16 -36 -29 -41 -29 -5 0 -16 -8 -25
-18 -9 -10 -34 -29 -56 -42 -22 -13 -44 -30 -48 -37 -4 -7 -14 -13 -22 -13 -7
0 -15 -3 -17 -7 -1 -5 -27 -26 -56 -48 -28 -21 -52 -43 -52 -47 0 -4 -7 -8
-15 -8 -8 0 -15 -3 -15 -8 0 -4 -35 -36 -77 -72 -106 -89 -445 -428 -468 -467
-11 -18 -23 -33 -27 -33 -4 0 -33 -33 -65 -72 -31 -40 -62 -77 -69 -83 -6 -5
-21 -26 -34 -45 -13 -19 -30 -42 -37 -50 -50 -56 -63 -72 -63 -80 0 -5 -6 -15
-14 -23 -12 -12 -89 -123 -121 -176 -5 -9 -13 -18 -16 -21 -3 -3 -15 -20 -25
-39 -33 -59 -73 -120 -91 -139 -7 -7 -13 -18 -13 -23 0 -6 -25 -52 -55 -104
-30 -51 -55 -98 -55 -104 0 -7 -9 -21 -20 -33 -11 -12 -20 -27 -20 -33 0 -7
-11 -32 -24 -56 -37 -72 -43 -82 -57 -114 -8 -16 -17 -32 -20 -35 -3 -3 -14
-27 -24 -55 -9 -27 -27 -70 -38 -95 -11 -25 -26 -58 -33 -75 -6 -16 -21 -51
-33 -78 -11 -26 -21 -54 -21 -61 0 -8 -9 -31 -19 -53 -10 -21 -27 -65 -36 -98
-10 -33 -26 -78 -36 -101 -11 -23 -19 -52 -19 -66 0 -13 -4 -28 -9 -33 -8 -9
-28 -82 -61 -215 -18 -73 -42 -166 -51 -197 -6 -18 -14 -63 -19 -100 -4 -38
-15 -97 -23 -133 -21 -88 -30 -149 -68 -440 -43 -336 -43 -1302 0 -1590 6 -41
19 -122 27 -180 29 -192 33 -215 44 -265 6 -27 15 -80 20 -117 5 -38 11 -72
14 -76 3 -5 12 -44 21 -88 9 -43 21 -83 26 -88 5 -6 9 -21 9 -33 0 -13 9 -54
20 -91 11 -37 28 -92 36 -122 20 -67 33 -108 44 -135 5 -11 11 -31 13 -45 5
-25 28 -90 51 -145 12 -29 22 -55 52 -140 8 -22 27 -67 43 -100 15 -33 31 -71
36 -85 8 -29 216 -448 247 -500 11 -19 34 -60 51 -90 16 -30 36 -62 43 -71 8
-8 14 -21 14 -28 0 -11 13 -30 60 -88 6 -7 10 -15 10 -18 0 -8 84 -133 117
-174 16 -19 30 -39 32 -45 2 -6 26 -40 53 -76 27 -36 66 -87 86 -114 20 -27
44 -56 52 -65 8 -10 37 -44 65 -76 139 -166 483 -510 610 -610 28 -22 52 -42
55 -45 3 -3 23 -19 45 -36 45 -33 72 -54 89 -69 6 -6 29 -24 51 -40 22 -17 42
-33 45 -36 3 -4 32 -24 65 -45 33 -21 66 -44 73 -51 8 -7 28 -21 45 -30 37
-18 100 -64 105 -75 2 -5 8 -8 13 -8 6 0 33 -15 62 -33 29 -18 59 -37 67 -41
8 -4 33 -18 55 -31 22 -13 56 -32 75 -41 19 -10 37 -20 40 -23 10 -11 377
-190 465 -226 50 -21 109 -46 132 -56 24 -11 49 -19 57 -19 8 0 17 -4 21 -9 3
-5 20 -13 38 -16 17 -4 46 -14 62 -23 17 -8 44 -19 60 -23 28 -7 155 -48 265
-86 25 -8 61 -19 80 -23 19 -5 80 -20 135 -35 55 -15 116 -29 135 -32 19 -2
44 -8 55 -13 11 -4 49 -14 85 -20 36 -7 79 -16 95 -21 17 -5 66 -13 110 -19
44 -5 105 -14 135 -19 30 -6 93 -15 140 -21 47 -5 121 -13 165 -19 451 -53
1338 -33 1720 39 33 6 89 15 125 19 36 4 88 13 115 19 136 32 194 44 235 52
25 4 90 20 145 35 106 28 153 40 198 51 15 3 30 10 33 15 3 5 14 9 25 9 22 0
167 47 184 60 6 4 21 10 35 13 33 7 140 45 162 57 10 6 24 10 31 10 7 0 29 9
50 19 20 10 49 22 63 25 25 7 91 35 219 96 33 16 94 45 135 64 41 19 104 52
140 72 36 20 90 50 120 66 30 17 87 49 125 71 85 49 399 259 403 270 2 4 9 7
15 7 7 0 28 15 47 33 19 17 64 54 100 82 36 27 72 56 80 65 8 8 33 28 55 44
53 39 87 71 289 271 170 168 205 206 321 339 94 109 231 292 350 468 25 37 45
70 45 73 0 3 4 11 10 18 47 58 60 77 60 88 0 7 6 20 14 28 7 9 27 41 43 71 17
30 40 71 51 90 12 19 24 42 28 50 3 8 11 24 17 35 40 70 131 256 167 341 24
54 58 131 77 171 18 40 33 76 33 81 0 4 9 27 20 50 11 22 20 49 20 60 0 10 4
22 9 28 12 12 52 122 58 159 3 17 9 35 14 41 4 5 15 35 23 65 9 30 28 95 42
144 14 50 29 106 31 125 3 19 9 40 13 45 8 10 44 166 61 265 5 30 14 78 20
105 10 50 14 73 43 265 34 225 38 261 49 440 14 232 14 816 -1 1060 -10 171
-25 314 -53 500 -6 41 -14 100 -18 130 -4 30 -15 87 -24 125 -19 85 -35 163
-47 230 -4 28 -15 73 -23 100 -9 28 -23 77 -32 110 -9 33 -25 88 -36 123 -10
34 -19 70 -19 79 0 9 -9 34 -19 57 -10 23 -27 68 -36 101 -10 33 -21 68 -26
77 -5 10 -9 25 -9 33 0 8 -4 15 -10 15 -5 0 -10 9 -10 20 0 11 -10 41 -21 67
-12 27 -27 62 -34 78 -6 17 -22 50 -34 73 -11 24 -21 49 -21 55 0 14 -54 129
-116 246 -13 24 -24 49 -24 56 0 6 -9 21 -20 33 -11 12 -20 26 -20 32 0 12
-74 144 -95 170 -7 8 -15 27 -19 43 -3 15 -11 27 -16 27 -6 0 -10 6 -10 13 0
8 -9 22 -20 32 -11 10 -20 22 -20 27 0 4 -15 30 -32 56 -18 26 -37 55 -43 64
-39 61 -111 165 -122 176 -7 7 -13 17 -13 22 0 8 -13 24 -63 80 -7 8 -24 31
-37 50 -13 19 -28 40 -34 45 -6 6 -29 33 -51 60 -21 28 -50 61 -64 75 -15 14
-39 43 -56 65 -55 75 -422 432 -531 517 -16 13 -36 30 -45 39 -8 8 -52 42 -97
74 -45 32 -82 62 -82 67 0 4 -6 8 -14 8 -8 0 -21 6 -28 13 -7 7 -34 28 -60 47
-27 18 -48 37 -48 42 0 4 -5 8 -12 8 -7 0 -38 18 -69 40 -32 22 -61 40 -65 40
-4 0 -16 7 -26 17 -20 18 -43 32 -98 60 -19 10 -36 21 -38 26 -2 4 -10 7 -18
7 -8 0 -14 5 -14 10 0 6 -5 10 -12 10 -6 0 -26 11 -44 25 -18 14 -37 25 -43
25 -6 0 -27 10 -48 22 -84 48 -165 88 -178 88 -7 0 -15 3 -17 8 -1 4 -30 20
-63 36 -33 15 -76 37 -96 47 -20 10 -44 19 -52 19 -8 0 -17 3 -19 8 -1 4 -37
20 -78 36 -41 16 -91 37 -111 47 -20 11 -44 19 -53 19 -9 0 -24 4 -34 10 -20
12 -91 37 -147 53 -22 7 -42 14 -45 17 -3 4 -32 14 -65 24 -33 10 -96 29 -140
43 -44 13 -96 28 -115 33 -19 4 -48 13 -65 19 -30 10 -133 36 -210 52 -152 31
-196 40 -240 51 -27 6 -81 15 -120 19 -38 4 -95 13 -125 19 -30 6 -93 15 -140
20 -47 4 -112 13 -145 19 -160 28 -889 47 -1170 29z m795 -2404 c52 -3 99 -10
104 -15 6 -5 23 -9 39 -9 16 0 46 -4 66 -9 20 -5 72 -17 116 -26 86 -19 190
-49 242 -71 17 -8 36 -14 43 -14 6 0 32 -9 58 -19 26 -10 72 -29 102 -41 30
-12 87 -37 125 -56 39 -19 76 -34 83 -34 6 0 12 -4 12 -9 0 -5 17 -16 38 -25
20 -9 49 -24 64 -34 14 -9 55 -34 90 -55 87 -52 100 -60 116 -74 7 -7 17 -13
21 -13 5 0 19 -10 33 -22 14 -13 53 -43 87 -67 33 -24 61 -48 61 -52 0 -5 4
-9 9 -9 24 0 289 -265 360 -360 14 -19 34 -42 43 -51 10 -9 18 -21 18 -26 0
-5 16 -24 35 -43 19 -19 35 -37 35 -41 0 -4 29 -50 64 -103 36 -52 72 -111 81
-131 10 -19 21 -35 26 -35 5 0 9 -7 9 -16 0 -9 9 -28 19 -43 11 -15 23 -39 26
-54 4 -15 10 -27 14 -27 4 0 12 -12 18 -27 7 -16 17 -35 22 -43 5 -8 20 -42
32 -75 13 -33 29 -67 36 -76 7 -8 13 -23 13 -33 0 -9 9 -36 20 -58 11 -23 20
-47 20 -52 0 -6 6 -22 13 -36 8 -14 17 -41 20 -59 4 -18 13 -47 21 -64 12 -29
31 -96 57 -199 5 -21 13 -55 19 -75 20 -77 42 -190 51 -263 5 -41 11 -86 14
-99 14 -57 35 -390 35 -549 0 -301 -45 -714 -101 -922 -5 -19 -14 -57 -19 -83
-6 -27 -17 -65 -25 -84 -8 -20 -15 -47 -15 -62 0 -15 -4 -31 -9 -36 -5 -6 -16
-32 -24 -60 -25 -80 -39 -118 -58 -156 -11 -20 -19 -48 -19 -63 0 -14 -4 -26
-8 -26 -4 0 -14 -17 -21 -37 -34 -96 -183 -381 -242 -465 -11 -14 -19 -33 -19
-42 0 -9 -4 -16 -9 -16 -5 0 -19 -16 -31 -35 -25 -41 -178 -235 -247 -314 -64
-73 -314 -303 -388 -356 -15 -11 -46 -34 -69 -51 -62 -46 -195 -133 -233 -151
-18 -8 -33 -19 -33 -24 0 -5 -6 -9 -14 -9 -8 0 -42 -16 -76 -35 -34 -19 -64
-35 -66 -35 -2 0 -36 -16 -75 -35 -40 -19 -76 -35 -81 -35 -4 0 -27 -9 -51
-19 -53 -24 -163 -61 -181 -61 -8 0 -27 -6 -43 -14 -29 -14 -63 -23 -218 -57
-389 -85 -865 -86 -1270 -3 -44 9 -96 20 -115 25 -19 4 -48 11 -65 14 -16 4
-39 11 -50 16 -11 5 -58 20 -105 35 -47 14 -103 35 -124 45 -22 10 -43 19 -48
19 -18 0 -341 166 -388 200 -16 11 -31 20 -34 20 -3 0 -33 19 -66 42 -34 24
-68 48 -78 53 -9 6 -21 15 -27 20 -7 6 -24 19 -39 30 -88 64 -111 84 -280 250
-123 121 -196 202 -196 218 0 4 -13 20 -30 34 -17 13 -30 31 -30 38 0 8 -6 18
-14 22 -7 4 -35 41 -61 81 -26 39 -52 72 -56 72 -5 0 -9 8 -9 18 0 10 -9 28
-20 40 -11 12 -20 23 -20 26 0 3 -21 40 -46 83 -49 83 -152 293 -175 356 -7
20 -17 37 -21 37 -4 0 -8 12 -8 28 0 15 -8 41 -18 57 -10 17 -21 41 -25 55 -9
38 -53 159 -60 167 -4 3 -7 19 -7 33 0 15 -7 44 -15 64 -15 34 -36 118 -55
216 -5 25 -14 68 -20 95 -54 251 -84 788 -61 1085 16 206 54 483 71 525 5 11
11 36 14 55 9 63 45 215 56 232 5 10 10 29 10 42 0 14 4 27 9 30 5 3 15 30 21
58 7 29 17 58 22 65 6 7 14 27 18 45 10 43 43 132 51 138 4 3 18 34 32 70 44
108 178 363 198 376 5 3 9 14 9 24 0 10 3 20 8 22 10 4 102 127 102 136 0 5 8
17 18 28 15 16 61 73 112 137 38 48 146 161 212 222 105 97 134 122 213 183
44 34 85 66 92 72 7 6 24 15 38 22 14 6 25 15 25 20 0 4 7 8 15 8 8 0 15 3 15
8 0 4 24 20 53 36 28 16 59 35 68 43 18 15 92 55 224 120 150 74 170 83 179
83 11 0 134 47 158 60 10 6 25 10 34 10 9 0 42 8 73 19 54 18 133 37 256 61
33 7 70 16 83 21 13 5 53 9 90 10 37 0 87 4 112 9 46 9 521 5 690 -6z"/>
</g>
</svg>
